<svg xmlns="http://www.w3.org/2000/svg" width="1024" height="1024"><path d="M453.539 139.937c-.318.515-.127 6.028.426 12.25.552 6.222 1.24 17.355 1.529 24.739.288 7.384.741 13.643 1.007 13.908.691.691 16.072.511 27.112-.317 10.305-.773 10.995-1.322 10.215-8.146l-.328-2.871-10.5.211c-5.775.116-11.447.446-12.605.733-1.962.486-2.148.006-2.75-7.112-.355-4.199-.65-11.953-.656-17.233-.006-5.279-.29-11.286-.631-13.349l-.62-3.75h-5.81c-3.195 0-6.071.422-6.389.937m79.731 9.701a1642.334 1642.334 0 00-8.796 15.862 4710.095 4710.095 0 01-8.143 14.872c-4.928 8.956-5.251 10.613-2.081 10.666 1.237.021 3.871.273 5.852.561 3.536.515 3.654.42 6.356-5.104 1.74-3.556 3.235-5.443 4.06-5.126.719.275 4.896 1.05 9.283 1.722l7.976 1.221.646 5.712.646 5.711 6.009.968c3.304.532 6.203.652 6.441.266.448-.725-2.667-16.561-6.878-34.969-1.321-5.775-2.714-12.377-3.096-14.672-.764-4.59-1.29-4.96-8.406-5.904l-4.885-.648-4.984 8.862m-121.52-4.91c-3.585.375-3.75.555-3.75 4.082 0 2.03.638 7.065 1.418 11.19.78 4.125 1.65 9.075 1.933 11 .284 1.925 1.326 8.563 2.316 14.75 2.077 12.986.653 12.083 15.42 9.786 18.521-2.881 22.376-3.667 23.011-4.695.575-.931-.688-8.764-1.553-9.629-.189-.19-5.452.527-11.695 1.594-6.242 1.066-11.634 1.658-11.981 1.316-.555-.547-2.026-8.617-6.083-33.372-1.21-7.38-.509-6.913-9.036-6.022m164.241 10.462a1191.292 1191.292 0 01-4.721 15.31c-3.038 9.587-3.909 18.034-2.347 22.768 3.418 10.356 21.547 16.88 32.761 11.789 5.747-2.61 8.717-7.555 12.734-21.206 1.861-6.325 4.103-13.62 4.983-16.211 2.355-6.936 2.176-7.391-3.583-9.101-2.849-.847-5.482-1.539-5.851-1.539-.368 0-2.336 5.738-4.374 12.75-5.762 19.834-7.75 24.581-10.729 25.629-5.679 1.997-14.864-2.683-14.864-7.574 0-1.791 3.868-16.049 7.113-26.22 3.232-10.13 2.775-11.159-5.774-13.018l-3.161-.687-2.187 7.31m-202.366-.721c-2.132.76-4.289 1.795-4.794 2.3-.504.504-1.336 8.526-1.847 17.824-.511 9.299-1.375 21.176-1.92 26.393-.545 5.218-.625 9.853-.177 10.301.447.447 3.244-.024 6.213-1.049l5.4-1.862.297-5.938.298-5.938 7.373-2.25c7.565-2.309 11.521-2.823 11.547-1.5.008.412 1.471 2.444 3.25 4.515l3.235 3.764 5.25-1.705c2.887-.938 5.25-2.14 5.25-2.67 0-.834-2.15-3.954-6.651-9.654-.651-.825-5.582-7.35-10.957-14.5-16.703-22.218-14.693-20.553-21.767-18.031m163.999 10.427c-1.993 3.793-3.624 7.127-3.624 7.408 0 .281 2.463.665 5.473.853l5.474.343-.573-4c-.685-4.776-2.315-11.5-2.789-11.5-.185 0-1.968 3.103-3.961 6.896M378.03 176.817c-.03 9.19.001 9.309 2.22 8.683 3.614-1.019 7.75-2.707 7.75-3.164 0-.232-1.722-2.765-3.827-5.629-2.105-2.864-4.341-6.107-4.97-7.207-.919-1.609-1.148-.18-1.173 7.317m-48.53-5.995c-9.206 3.374-25.5 11.524-25.5 12.754 0 1.062 6.161 14.88 12.004 26.924 1.068 2.2 3.535 7.488 5.482 11.75 1.948 4.262 3.937 7.75 4.421 7.75.483 0 6.55-2.676 13.482-5.947 13.135-6.2 18.849-10.568 20.676-15.808 2.426-6.96-4.403-18.245-11.04-18.245-2.707 0-3.114-.287-2.48-1.75 3.55-8.181-.979-17.328-9.299-18.781-1.51-.264-4.996.345-7.746 1.353m305 .137c-1.1.458-3.321 2.229-4.936 3.936-2.418 2.555-3.013 4.167-3.372 9.134l-.437 6.031 5.373 5.263c2.954 2.895 6.769 6.398 8.476 7.783 1.708 1.386 3.838 3.639 4.734 5.007 1.474 2.249 1.482 2.698.089 4.687-2.623 3.746-10.198 2.425-14.715-2.566-.981-1.084-1.88-3.717-1.998-5.852-.195-3.531-.621-4.082-4.714-6.091-2.475-1.215-5.03-2.227-5.678-2.25-.684-.024-1.46 2.218-1.851 5.345-1.148 9.187 3.436 15.947 14.37 21.195 13.561 6.509 26.5 1.448 27.892-10.908.727-6.451-2.345-11.273-11.898-18.679-6.044-4.685-7.835-6.64-7.835-8.555 0-1.657.807-2.849 2.426-3.587 5.247-2.391 12.574 2.544 12.574 8.467 0 3.148.385 3.574 4.943 5.469 4.222 1.754 5.114 1.848 6.117.64 1.475-1.778 1.843-7.126.722-10.501-1.31-3.946-9.761-11.663-14.658-13.387-4.693-1.652-12.366-1.937-15.624-.581m-309 12.688c-3.3 1.411-6.144 2.699-6.32 2.862-.26.242 3.483 8.31 4.299 9.264.128.15 3.223-1.069 6.877-2.708 5.969-2.679 6.644-3.275 6.644-5.868 0-2.745-2.603-6.244-4.579-6.156-.506.023-3.621 1.195-6.921 2.606m349.726 5.929c-1.224 1.868-2.226 4.013-2.226 4.768 0 .754 2.7 3.038 6 5.075 3.3 2.037 6 3.919 6 4.183 0 .263-.851 1.698-1.89 3.188-1.04 1.491-4.709 7.21-8.154 12.71-3.444 5.5-7.319 11.599-8.609 13.554-1.291 1.954-2.347 4.274-2.347 5.155 0 .88 2.092 2.827 4.648 4.325l4.649 2.724 1.67-2.215c.919-1.218 3.44-5.103 5.602-8.634 2.162-3.531 6.521-10.497 9.686-15.479l5.755-9.059 2.745 1.889c1.51 1.039 4.412 2.892 6.449 4.117l3.704 2.229 2.531-4.01c2.335-3.698 2.563-7.096.477-7.096-.478 0-6.393-3.506-13.143-7.791-6.75-4.286-14.309-8.97-16.797-10.41l-4.524-2.618-2.226 3.395m-386.305 1.304c-6.979 4.546-24.099 15.506-27.657 17.705l-3.235 1.999 1.826 3.407c2.973 5.543 4.149 5.733 10.214 1.648 2.972-2.001 5.683-3.639 6.023-3.639.596 0 7.269 10.065 17.404 26.25 2.669 4.262 5.257 7.75 5.75 7.75 1.489 0 9.754-5.126 9.754-6.049 0-.742-14.806-24.386-20.134-32.152l-1.853-2.701 5.586-3.707c3.072-2.039 5.813-4.3 6.09-5.024.53-1.381-3.31-8.367-4.599-8.367-.411 0-2.737 1.296-5.169 2.88m43.853 10.947l-5.725 2.673 2.619 5.75c1.441 3.162 2.892 5.747 3.226 5.742.333-.004 3.521-1.466 7.083-3.25 7.595-3.801 9.452-6.912 6.666-11.165-2.209-3.371-6.271-3.298-13.869.25M458 210.526c-17.268 1.616-51.142 7.707-57.5 10.34-1.1.456-8.747 3.024-16.993 5.709-25.505 8.302-51.393 20.998-76.794 37.661-8.267 5.424-20.407 14.232-21.713 15.753-.275.321-3.884 3.324-8.021 6.674-19.248 15.589-44.838 44.179-59.375 66.337-3.788 5.775-7.696 11.681-8.684 13.125-.987 1.444-5.946 10.669-11.019 20.5-5.074 9.831-9.353 18.039-9.51 18.239-.463.59-18.42-2.846-24.391-4.667-8.593-2.621-13.754-8.438-17.474-19.697-6.173-18.682-9.602-24.5-14.44-24.5-1.059 0-3.263-2.167-5.341-5.25-4.346-6.447-10.622-13.214-13.067-14.09-1.003-.359-2.666-.202-3.697.35-1.446.774-2.715.432-5.567-1.504-4.275-2.901-9.414-3.386-9.414-.889 0 1.211-.564 1.446-2.25.936-5.733-1.734-10.391-1.769-12.069-.091-3.186 3.186-1.733 7.608 5.761 17.538 13.083 17.333 19.746 32.752 16.207 37.5-1.276 1.711-2.55 1.978-8.82 1.849-4.031-.083-11.492-.871-16.579-1.75-5.088-.88-11.708-1.599-14.711-1.599-9.402 0-11.462 4.936-5.091 12.198 4.213 4.802 10.716 6.499 33.747 8.804 9.728.974 19.267 3.27 30.441 7.327 3.484 1.265 10.616 4.895 19.864 10.11 3.796 2.141 16.018 10.486 22 15.023 3.3 2.503 6.821 4.834 7.824 5.18 1.402.484 1.669 1.235 1.155 3.244-3.125 12.191-6.718 30.242-8.587 43.131-3.048 21.025-3.338 63.691-.567 83.483 4.205 30.033 12.292 59.868 23.448 86.5 4.118 9.829 15.457 32.204 20.019 39.5l3.126 5-10.713.689c-21.699 1.395-40.39 9.992-55.528 25.542-10.806 11.099-17.537 22.774-21.89 37.967-3.258 11.372-3.201 32.252.12 44.302 8.223 29.827 31.943 53.195 62.181 61.257l8.412 2.243h294c282.03 0 294.326-.075 302-1.842 45.723-10.528 74.979-57.345 64.384-103.034-8.503-36.672-40.201-64.116-76.634-66.351-5.087-.312-9.25-.661-9.25-.776 0-.116 2.288-4.186 5.084-9.045 31.004-53.88 46.082-116.205 43.143-178.33-.625-13.212-.516-15.451.773-15.905.825-.29 10.275-4.218 21-8.728 27.699-11.648 41.119-17.135 44-17.991 1.375-.409 2.95-1.061 3.5-1.451 2.206-1.562 19.593-7.116 29-9.264 8.37-1.911 12.609-2.262 26-2.155 10.313.083 18.843.705 24 1.75 14.467 2.933 24.605 1.663 29.067-3.64 5.591-6.644 1.044-11.06-12.567-12.204-14.169-1.191-28.469-3.687-30.25-5.279-2.47-2.208-2.17-4.996 1.157-10.755 2.829-4.897 14.892-17.223 26.366-26.942 3.174-2.689 6.028-5.907 6.34-7.151 1.4-5.58-2.891-8.716-10.524-7.692-3.614.485-4.089.314-4.089-1.467 0-2.852-3.67-3.522-8.739-1.596-3.605 1.37-4.486 1.406-5.889.242-3.44-2.855-9.149-.135-19.855 9.46-3.937 3.529-5.355 4.268-6.75 3.521-1.121-.6-2.438-.586-3.603.037-2.965 1.587-8.44 8.13-12.637 15.102-2.148 3.567-4.16 6.711-4.472 6.986-.311.275-1.792 2.145-3.289 4.155-1.498 2.011-4.42 4.711-6.495 6-4.282 2.663-.969 2.582-62.771 1.537l-34-.575-1.301-3.176c-.715-1.747-1.997-5.935-2.849-9.308-2.527-10.01-12.449-32.027-22.142-49.133-24.117-42.562-62.534-84.419-100.208-109.179-4.675-3.073-9.665-6.387-11.088-7.364-8.111-5.57-37.006-20.619-48.212-25.109-50.829-20.368-103.883-28.264-156.7-23.322m-211.658 9.193c-3.213 2.595-6.292 5.235-6.842 5.865-.55.631-4.15 3.51-8 6.399-3.85 2.89-7.163 5.4-7.362 5.58-.363.329 6.31 9.068 8.352 10.937.601.55 5.077 5.95 9.946 12 10.789 13.404 14.321 17.5 15.092 17.5 1.237 0 8.472-6.39 8.472-7.482 0-.631-2.749-4.412-6.108-8.403l-6.108-7.256 2.072-2.206c1.14-1.213 4.771-4.219 8.068-6.679 3.298-2.461 6.014-4.716 6.036-5.012.022-.296-1.252-2.085-2.83-3.976l-2.871-3.438-3.879 2.702c-2.134 1.485-5.68 4.278-7.88 6.206-2.2 1.928-4.45 3.514-5 3.525-.939.018-6.5-6.29-6.5-7.373 0-.274 2.588-2.603 5.75-5.176 3.162-2.572 7.256-5.997 9.098-7.61l3.347-2.932-2.733-3.945c-1.504-2.17-3.082-3.945-3.506-3.945-.425 0-3.401 2.124-6.614 4.719m461.137 13.436c-8.238 9.985-15.541 18.728-16.229 19.428-1.889 1.925-1.591 2.678 2.725 6.892 3.886 3.796 4.019 3.841 5.993 2.054 1.11-1.005 3.876-4.235 6.147-7.178 2.27-2.943 4.869-5.351 5.774-5.351.905 0 3.82 2.083 6.478 4.63 5.72 5.481 5.738 7.323.157 15.61-1.938 2.878-3.524 5.772-3.524 6.43 0 .658 2.11 2.914 4.688 5.013 2.578 2.099 6.429 5.696 8.558 7.992l3.87 4.174 3.692-1.449c2.031-.798 4.416-1.853 5.301-2.346 1.244-.692 3.002.546 7.75 5.457 3.378 3.493 6.141 6.997 6.141 7.785 0 .789-.838 2.507-1.862 3.819-3.571 4.572-3.49 6.33.495 10.769 2.032 2.264 4.038 4.116 4.457 4.116 1.135 0 24.91-46.483 24.91-48.702 0-2.634-6.089-8.298-8.923-8.298-1.28 0-4.858 1.095-7.952 2.433-9.888 4.277-40.614 16.35-40.918 16.077-.506-.454 3.128-7.51 3.868-7.51 1.289 0 4.925-8.93 4.925-12.096 0-2.138.406-2.962 1.292-2.622 2.262.868 10.107-3.657 12.449-7.18 2.426-3.65 2.999-10.025 1.302-14.489-.526-1.384-4.436-5.351-8.689-8.815-4.252-3.464-9.784-8.203-12.293-10.531-2.508-2.328-4.795-4.241-5.082-4.25-.286-.009-7.261 8.153-15.5 18.138m13.995 2.881l-3.697 5.036 2.361 1.934c1.299 1.063 3.037 2.556 3.862 3.317.825.76 2.703 2.153 4.174 3.095 2.432 1.557 2.941 1.574 5.629.184 3.026-1.565 4.197-3.395 4.197-6.558 0-1.677-10.383-12.044-12.063-12.044-.421 0-2.43 2.266-4.463 5.036M465.5 239.031c-5.5.478-11.575 1.099-13.5 1.382-1.925.282-7.1 1.035-11.5 1.671-14.187 2.054-37.239 8.034-53 13.751-24.235 8.79-41.676 17.582-63 31.758-12.857 8.547-24.482 16.821-25.373 18.058-.345.479-4.906 4.549-10.136 9.045-9.281 7.979-21.039 20.237-30.025 31.304-2.456 3.025-4.738 5.725-5.07 6-1.235 1.021-20.896 29.587-20.896 30.359 0 .24-1.743 3.306-3.873 6.812C224.52 396.754 218 409.53 218 410.975c0 .564.727 1.025 1.616 1.025.888 0 3.701.674 6.25 1.498 13.524 4.371 24.051 7.437 27.437 7.991 2.091.342 4.052 1.272 4.357 2.066.304.795 1.205 1.445 2.001 1.445 2.046 0 22.136 9.778 26.339 12.82 1.925 1.393 5.341 4.4 7.591 6.684 2.249 2.283 5.624 5.322 7.5 6.753l3.409 2.602-.328-18.179c-.326-18.083-.343-18.205-3.25-22.945-2.544-4.15-2.922-5.732-2.922-12.247 0-7.147.157-7.656 3.5-11.356l3.5-3.874.028-18.379c.026-17.117.184-18.684 2.303-22.826 1.578-3.085 3.574-5.135 6.518-6.692 4.012-2.121 5.312-2.236 23.762-2.098 16.11.121 19.677-.107 20.427-1.308.652-1.043.422-1.542-.814-1.764-4.264-.763-4.303-.937-1.717-7.807 4.736-12.582 12.912-25.378 23.283-36.438 6.76-7.208 7.045-7.39 8.925-5.696 1.068.962 2.21 1.75 2.536 1.75.327 0 5.372 2.925 11.211 6.5 5.84 3.575 10.754 6.5 10.92 6.5.167 0-4.116-4.613-9.518-10.25-5.402-5.637-9.825-10.925-9.83-11.75-.019-3.471 23.819-16.544 39.889-21.874 10.831-3.593 12.92-3.803 13.707-1.376.313.963 3.03 7.825 6.04 15.25l5.472 13.5-.62-7.5a850.84 850.84 0 00-1.179-13c-.92-9.057-.985-10.965-.4-11.836.971-1.449 17.114-3.167 29.557-3.147 10.397.017 21.599 1.144 35.75 3.595l3.75.65-.008 5.119c-.005 2.815-.467 9.119-1.027 14.009-.56 4.889-.853 9.055-.651 9.257.201.202 2.126-5.526 4.276-12.728l3.91-13.095 4.061.444c11.5 1.257 44.439 17.907 44.439 22.462 0 .858-2.522 6.557-5.604 12.665l-5.604 11.105 9.477-9.353c11.013-10.871 10.178-10.846 19.275-.565 8.51 9.619 13.283 16.458 19.802 28.376 6.59 12.048 7.637 15.042 5.262 15.042-.884 0-1.608.675-1.608 1.5 0 1.708-1.092 1.639 24.837 1.58 19.677-.044 22.813.597 25.337 5.18.787 1.428 1.384 8.365 1.649 19.145.402 16.375.505 17.07 3.296 22.155 2.425 4.418 2.881 6.394 2.881 12.477 0 7.056-.089 7.31-3.75 10.76l-3.75 3.534-.5 19.084c-.438 16.705-.756 19.572-2.55 22.993-3.538 6.742-6.416 7.592-25.717 7.592-16.503 0-16.812.039-17.642 2.25-.644 1.715-.458 2.339.782 2.623 1.97.452 35.278-1.625 47.127-2.938 23.806-2.638 28.375-3.223 39-4.994 6.325-1.054 15.965-3.122 21.423-4.597 9.102-2.46 10.141-2.557 12.548-1.175 2.444 1.402 2.996 1.316 8.006-1.246 2.96-1.514 8.001-3.334 11.202-4.044 3.936-.873 5.821-1.778 5.821-2.793 0-3.105-8.386-24.095-15.017-37.586-10.217-20.79-19.333-35.017-35.155-54.866-19.697-24.711-38.845-41.91-69.328-62.276-32.387-21.638-79.067-39.58-115.5-44.395-4.675-.618-10.336-1.525-12.58-2.015-5.926-1.294-46.215-1.932-57.92-.917M204.485 258.1c-9.881 5.207-14.944 13.001-14.876 22.9.074 10.815 5.946 19.704 16.79 25.419 3.872 2.04 6.321 2.581 11.685 2.581 3.732 0 7.953-.444 9.378-.986 4.082-1.552 12.17-9.7 14.456-14.563 5.828-12.398-1.462-28.211-16.321-35.404-5.84-2.827-15.694-2.802-21.112.053m.636 12.899c-3.492 3.388-4.121 4.618-4.121 8.05 0 5.169 1.833 8.664 6.988 13.321 4.623 4.177 7.753 5.63 12.127 5.63 8.955 0 14.75-9.237 10.921-17.41-2.541-5.423-4.652-7.694-10.138-10.91-6.725-3.941-10.7-3.609-15.777 1.319m555.863 9.696c-3.566 1.408-6.816 2.857-7.221 3.22-.807.722 4.862 8.085 6.224 8.085.918 0 8.419-12.927 7.838-13.508-.196-.197-3.275.795-6.841 2.203M798 295.94c-5.667 4.144-29.439 20.748-33.183 23.177-2.219 1.439-4.377 3.171-4.795 3.847-.473.765 3.187 6.868 9.672 16.126l10.433 14.896 2.759-1.427c1.518-.785 3.369-2.161 4.114-3.059 1.59-1.916.645-3.83-7.305-14.8-2.711-3.74-4.712-7.016-4.449-7.28.264-.264 7.355-5.304 15.759-11.2 8.403-5.896 15.73-11.437 16.283-12.313.747-1.186.392-2.463-1.392-5-3.856-5.482-4.253-5.632-7.896-2.967m-627.5 3.664c-9.485 5.182-16.293 18.115-14.112 26.807.953 3.795 6.279 9.357 9.676 10.103 5.776 1.269 10.717-.427 17.244-5.918 8.453-7.111 10.765-8.596 13.379-8.596 5.528 0 4.909 8.465-1.025 14.027-3.161 2.963-6.874 3.758-9.574 2.048-1.551-.981-2.238-.428-5.924 4.778-2.23 3.149-2.257 3.387-.595 5.223 2.133 2.357 11.703 2.673 16.774.554 3.695-1.544 9.613-8.015 12.639-13.819 2.791-5.356 2.793-15.011.002-18.558-7.758-9.863-16.763-9.461-28.202 1.261-6.468 6.063-9.449 7.734-11.675 6.544-2.735-1.464-3.291-3.823-1.62-6.871 3.136-5.721 4.371-6.63 9.046-6.659 4.191-.026 4.683-.322 7.428-4.469l2.94-4.44-2.1-1.471c-3.138-2.198-10.744-2.487-14.301-.544m302.942 27.717c-3.268.452-6.331 1.201-6.807 1.665-.827.807 1.306 7.627 4.07 13.014.706 1.375 1.285 3.074 1.289 3.775.005.992 3.51 1.214 15.733 1l15.727-.275 2.407-7.18c1.324-3.949 2.167-7.806 1.873-8.572-1.139-2.966-22.312-5.082-34.292-3.427m-26.031 9.197c-4.895 2.561-9.128 4.97-9.406 5.354-.278.383-1.803 1.694-3.39 2.912L431.73 347h15.135c8.324 0 15.135-.405 15.135-.901s-1.28-3.901-2.844-7.569l-2.845-6.667-8.9 4.655m373.581-1.097c-7.361 3.967-35.351 20.306-37.253 21.746-1.654 1.252-1.58 1.646 1.225 6.503l2.985 5.17 12.573-7.17c6.916-3.944 13.79-7.936 15.276-8.873 1.486-.936 4.502-2.597 6.702-3.69s5.35-2.802 7-3.797l3.42-2.063c1.062-.641-4.42-10.247-5.849-10.247-.873 0-3.608 1.089-6.079 2.421M515.71 338.75c-3.754 8.832-4.419 8.25 9.423 8.25 7.153 0 11.871-.368 11.317-.884-2.121-1.973-16.919-11.116-17.992-11.116-.635 0-1.872 1.688-2.748 3.75m114.499 7.5c.195.688 1.199 4.938 2.231 9.445l1.877 8.195 6.092 3.242c3.35 1.782 8.566 4.731 11.591 6.552 3.025 1.821 5.837 3.312 6.25 3.313.413.002.75-6.452.75-14.342 0-18.45.738-17.655-16.402-17.655-9.719 0-12.66.297-12.389 1.25m-309.573 3.027c-.96.702-2.167 3.065-2.682 5.25-.956 4.056-1.162 26.473-.244 26.473.428 0 23.162-12.777 24.117-13.554.642-.523 4.139-14.991 4.156-17.196.017-2.207-.207-2.25-11.792-2.25-8.001 0-12.372.412-13.555 1.277M354 358c0 1.524.667 2 2.8 2 2.699 0 5.2-1.539 5.2-3.2 0-.44-1.8-.8-4-.8-3.333 0-4 .333-4 2m16.667-1.333c-.367.366-.667 1.266-.667 2 0 1.092 8.722 1.333 48.333 1.333 26.584 0 48.603-.269 48.931-.598.329-.329.356-1.229.06-2-.451-1.176-8.242-1.402-48.264-1.402-26.25 0-48.027.3-48.393.667m106.333.814c0 2.101 3.2 2.65 13.489 2.313 7.627-.249 9.039-.559 9.323-2.044.303-1.585-.756-1.75-11.239-1.75-9.554 0-11.573.258-11.573 1.481m32 .51c0 1.985.589 2.009 49.573 2.009 46.675 0 49.554-.102 49.237-1.75-.315-1.634-3.595-1.767-49.574-2.009-48.732-.257-49.236-.239-49.236 1.75m108.172-.306c.248 1.305 1.42 1.904 4.172 2.13 3.245.268 3.775.039 3.484-1.5-.248-1.305-1.42-1.904-4.172-2.13-3.245-.268-3.775-.039-3.484 1.5M817.5 368.049c-5.5.376-13.712 1.015-18.25 1.421-9.247.827-9.421 1.048-6.331 8.03l1.77 4h12.586l3.397 7.927 3.397 7.927-4.035 4.111c-2.219 2.261-4.034 4.514-4.034 5.007 0 1.269 4.021 9.423 4.921 9.979.411.254 2.807-1.656 5.325-4.244 2.518-2.589 11.334-11.404 19.592-19.588 11.895-11.789 14.828-15.218 14.114-16.5-.496-.891-1.561-3.298-2.368-5.35l-1.466-3.731-9.309.164c-5.12.09-13.809.471-19.309.847m-466.982 2.201c-1.325 3.949-2.497 10.468-3.559 19.795-1.217 10.682-1.077 13.006 2.182 36.205l1.089 7.75h10.929l-.743-3.25c-2.863-12.529-4.054-24.392-3.842-38.25.126-8.25.483-16.913.793-19.25l.564-4.25h-3.497c-1.923 0-3.685.563-3.916 1.25m15.546 6.254c-1.614 10.006-1.411 29.506.406 39.005.808 4.221 1.405 7.971 1.328 8.333-.077.362.213 2.795.644 5.408l.785 4.75H607.832l2.532-10.794c2.182-9.308 2.531-13.122 2.531-27.696 0-9.297-.464-19.064-1.03-21.706L610.834 369h-243.56l-1.21 7.504m254.999-3.817c.035 2.097.436 7.638.892 12.313.888 9.095-1.094 36.226-2.801 38.351-.508.632-1.37 3.286-1.917 5.899l-.995 4.75h7.475l3.184-13.057c2.826-11.592 3.181-14.651 3.16-27.25-.014-8.086-.57-16.344-1.292-19.193-1.167-4.599-1.529-5.025-4.519-5.313-3.162-.305-3.248-.211-3.187 3.5M426 375.683c-12.562 5.136-19.54 11.406-22.453 20.177-1.936 5.828-1.595 9.667 1.46 16.431 2.304 5.099 3.341 6.357 8.493 10.305 5.623 4.309 11.836 6.504 20.21 7.139 8.166.62 13.915-.618 22.29-4.8 6.743-3.367 10.238-6.951 12.936-13.268 5.488-12.848-.985-26.583-15.796-33.52-4.758-2.228-7.203-2.675-15.64-2.859-5.5-.12-10.675.058-11.5.395m212.5 19.316c0 9.9.257 18 .572 18.001 1.007 0 25.399-16.193 26.163-17.369 2.085-3.21.544-4.615-11.776-10.73-6.898-3.424-12.775-6.603-13.059-7.063-1.535-2.484-1.9.81-1.9 17.161m-112.233-15.952c-6.652 1.324-11.35 3.967-16.951 9.536-8.319 8.272-10.2 18.001-5.291 27.37 3.005 5.735 8.566 10.966 14.724 13.852 5.153 2.415 6.895 2.695 16.751 2.695 10.152 0 11.462-.227 17-2.945 15.066-7.396 21.392-21.886 14.913-34.156-3.663-6.937-5.924-9.049-13.893-12.978-5.835-2.877-8.37-3.525-15.02-3.839-4.4-.207-9.905.002-12.233.465m298.233-.337c-6.701.468-8.167 1.023-6.667 2.523.642.642 1.167 1.877 1.167 2.744 0 .868.73 2.621 1.623 3.895l1.623 2.317 5.377-5.31c5.712-5.641 6.441-6.989 3.627-6.699-.962.099-4 .338-6.75.53m-497 8.297c-14.992 9.37-15.5 9.774-15.5 12.332 0 1.843 2.27 3.491 12.68 9.203 6.974 3.827 12.937 7.07 13.25 7.208.314.137.65-7.203.747-16.31.119-11.135.569-17.031 1.372-18 2.568-3.094-1.769-1.17-12.549 5.567m101.826-2.021c-7.714 1.633-13.04 5.483-16.024 11.583-2.088 4.27-2.154 6.328-.35 10.931 1.11 2.835 5.766 8.5 6.985 8.5.31 0 .563-2.892.563-6.427 0-4.931.48-7.069 2.062-9.188 6.521-8.735 17.547-10.372 25.393-3.77 4.67 3.93 3.476 7.396-1.742 5.056-2.731-1.225-5.866 1.184-4.881 3.751.667 1.739 5.189 2.163 6.168.578.34-.55 2.229-1 4.198-1h3.581l-.586 4.948c-.677 5.713.526 5.953 4.294.855 8.065-10.908-2.354-24.939-19.487-26.243-3.3-.252-7.878-.06-10.174.426m100.719 3.172c-17.456 3.164-24.819 17.129-14.69 27.86 1.548 1.64 3.114 2.983 3.48 2.983.366.001.509-2.499.319-5.556-.438-7.039 2.619-12.188 9.096-15.324 7.024-3.4 14.518-2.383 20.014 2.715 2.481 2.302 2.607 2.721 1.234 4.095-1.261 1.26-1.884 1.309-3.537.277-3.861-2.411-7.949 1.898-4.509 4.752 1.537 1.276 5.548.542 5.548-1.015 0-.507 1.462-.796 3.25-.643 3.18.273 3.249.381 3.186 5.01-.074 5.448.994 5.613 4.343.67 3.116-4.599 3.684-7.494 2.346-11.96-2.855-9.527-17.293-16.182-30.08-13.864m115.499 31.929l-11.957 6.882-1.751 7.265c-3.042 12.615-3.792 11.768 10.414 11.751 6.737-.009 12.745-.346 13.35-.75 2.707-1.807 3.4-5.615 3.4-18.669 0-7.461-.337-13.52-.75-13.463-.413.056-6.13 3.199-12.706 6.984M317 430.277c0 19.475-.645 18.723 16.057 18.723 14.376 0 13.931.259 12.001-7-.511-1.925-1.415-5.37-2.007-7.655-1.023-3.947-1.682-4.513-13.098-11.25-6.611-3.902-12.23-7.095-12.487-7.095-.256 0-.466 6.425-.466 14.277m37.848 13.639c-1.318.495-1.382 1.192-.423 4.584l1.131 4 5.722.3c6.431.337 6.802-.196 3.97-5.698-1.449-2.816-2.356-3.43-5.297-3.584-1.951-.102-4.248.077-5.103.398m18.498.334c-1.54 2.489 3.142 2.75 49.347 2.75 45.884 0 56.306-.538 56.307-2.908.001-.877-105.111-.72-105.654.158M505 444.092c0 .325 1.74 1.113 3.866 1.75C513.89 447.347 604 447.497 604 446v-1.478c0-.262-22.275-.6-49.5-.75-27.225-.149-49.5-.006-49.5.32m110.074-.129c-4.23 1.033-3.674 3.037.843 3.037 3.293 0 4.083-.355 4.083-1.833 0-1.934-.968-2.171-4.926-1.204m-133.135 8.338c-6.021 1.708-10.322 4.879-12.316 9.08-1.306 2.753-1.623 6.852-1.623 20.994v17.574l2.75 1.391c8.75 4.428 25.551 4.79 33.361.719 2.414-1.258 6.077-3.624 8.139-5.257l3.75-2.97-.002-15.166c-.001-17.868-.921-20.742-7.85-24.542-5.332-2.924-18.982-3.873-26.209-1.823m41.377 2.51c-2.112.301-2.137.446-.75 4.376.902 2.555 1.451 8.194 1.479 15.189l.045 11.124 3.705-4.353c4.85-5.699 18.238-25.448 17.649-26.036-.522-.522-18.823-.771-22.128-.3m-93.674 2.439c.418.688 3.406 4.625 6.64 8.75 3.234 4.125 6.746 8.625 7.803 10 4.023 5.228 14.447 16.868 15.165 16.933.413.037.75-6.697.75-14.965 0-10.865.402-15.994 1.449-18.5l1.449-3.468H445.89c-13.345 0-16.844.269-16.248 1.25m-115.202 2.281c2.9 2.194 12.332 5.522 18.56 6.55 7.519 1.241 19 1.172 19-.113 0-.568-.652-2.593-1.449-4.5L349.102 458l-18.301.032c-16.306.028-18.09.192-16.361 1.499M195.58 478.15c-6.812 37.236-7.377 74.16-1.644 107.504 4.309 25.06 11.533 49.163 21.397 71.388 8.064 18.172 13.632 28.215 26.719 48.196l2.448 3.737 44.369.013 44.37.012-.716-32.25c-.767-34.576-1.333-39.287-6.511-54.25-6-17.337-28.476-59.469-39.276-73.625-1.836-2.406-8.888-12.565-15.672-22.575-9.915-14.631-13.043-18.529-15.949-19.877-7.554-3.504-30.189-17.628-33.943-21.18-.73-.691-2.203-1.724-3.272-2.296-1.069-.573-5.794-3.945-10.5-7.494-4.705-3.549-8.913-6.453-9.351-6.453-.437 0-1.548 4.118-2.469 9.15m589.018 39.585c-.42.421-1.065.793-1.431.827-1.199.111-24.63 7.596-26.081 8.331-.778.395-3.198 4.067-5.376 8.162a2908.693 2908.693 0 01-9.336 17.344c-2.956 5.444-5.374 10.462-5.374 11.15 0 .688-2.362 1.81-5.25 2.493-38.632 9.138-77.973 30.281-84.236 45.271-1.033 2.471-1.399 13.812-1.623 50.189l-.29 46.998 43.162.261 43.162.26 4.895-7.26c13.703-20.323 28.115-49.983 35.23-72.505 9.922-31.406 13.905-55.887 14.519-89.256.352-19.137-.091-24.145-1.971-22.265m-34.601 230.48c-13.268 4.663-20.158 13.531-20.295 26.123-.17 15.731 6.872 21.661 34.185 28.789 13.048 3.405 18.013 5.662 21.114 9.595 2.743 3.48 2.234 9.334-1.123 12.908-5.161 5.494-20.094 6.852-28.45 2.587-5.189-2.648-7.324-5.148-8.868-10.386l-1.276-4.331-9.783-.288-9.783-.288.651 4.788C728.801 835.576 743.996 846 767.605 846c16.004 0 28.855-5.655 34.798-15.312 2.491-4.048 3.031-6.117 3.392-13.012.478-9.103-.617-12.953-5.249-18.446-4.435-5.259-10.201-7.938-26.099-12.125-22.8-6.005-25.447-7.468-25.447-14.057 0-4.685 2.283-7.818 7.383-10.134 4.969-2.257 9.695-2.397 16.078-.476 5.969 1.797 9.265 4.83 10.589 9.747l1.027 3.815H803v-2.822c0-9.576-8.13-20.166-18.559-24.176-9.095-3.497-25.656-3.876-34.444-.787M171.204 783.75c.308 34.594.393 35.935 2.618 41.471 5.873 14.61 19.743 21.526 41.166 20.525 12.528-.585 19.811-3.056 26.589-9.023 10.063-8.858 11.707-17.67 11.234-60.223l-.311-28h-19.452l-.274 33.5c-.27 33.064-.305 33.563-2.672 38.372-3.367 6.84-8.263 8.952-19.645 8.476-8.877-.372-11.729-1.654-15.794-7.098-3.046-4.08-3.539-9.965-3.603-43L191 748H170.885l.319 35.75m104.784-35.5c-.006.138-.045 21.625-.086 47.75l-.075 47.5 9.086.288 9.087.287v-33.537c0-30.844.469-36.845 2.483-31.788.956 2.399 21.574 61.311 22.238 63.538.463 1.558 1.566 1.752 8.526 1.5l7.994-.288 8.926-26c4.909-14.3 10.115-29.487 11.57-33.75 1.455-4.263 3.01-7.75 3.454-7.75.445 0 .809 15.3.809 34v34h19v-96.053l-14.689.276-14.689.277-4.199 13c-2.309 7.15-7.03 21.888-10.489 32.75-3.46 10.862-6.773 19.743-7.363 19.735-.589-.008-2.352-4.171-3.918-9.25-1.566-5.079-6.516-19.92-11-32.978l-8.153-23.744-14.25-.006c-7.837-.004-14.255.105-14.262.243M402 795.915V844H421.953l.273-17.25.274-17.25 17-.532c14.366-.45 17.699-.855 21.508-2.611 6.492-2.993 10.71-6.893 13.776-12.737 2.363-4.503 2.688-6.265 2.701-14.62.013-8.458-.301-10.143-2.863-15.361-1.996-4.065-4.239-6.822-7.321-9-8.122-5.737-9.52-5.969-38.551-6.406l-26.75-.402v48.084m94 .085v48h20v-96h-20v48m43-.031v48.101l10.25-.285 10.25-.285.272-18.75.272-18.75h13.01c14.504 0 18.4 1.013 21.68 5.637 2.181 3.075 3.79 9.952 4.763 20.363.335 3.575.845 7.737 1.135 9.25l.527 2.75h19.791l-1.065-2.75c-.586-1.513-1.43-8.21-1.876-14.883-.938-14.017-2.894-19.652-8.235-23.725-1.904-1.453-3.983-2.642-4.618-2.642-2.345 0-1.049-1.859 2.594-3.722 5.669-2.899 9.944-9.905 10.774-17.657 1.11-10.365-1.417-17.685-8.142-23.591-7.292-6.402-7.847-6.495-41.132-6.844l-30.25-.318v48.101M641 796v48h72v-17h-52.062l.281-12.25.281-12.25 23.25-.268 23.25-.269v-14.926l-23.25-.269-23.25-.268-.284-10.75-.284-10.75H712v-17h-71v48m-218.777-17.25l.277 14.75 11 .222c14.91.301 20.086-1.409 23.25-7.684 1.238-2.454 2.249-5.829 2.248-7.5-.002-4.369-2.967-9.643-6.896-12.268-3.11-2.078-4.532-2.27-16.777-2.27h-13.378l.276 14.75M560 778v14h14.032c19.212 0 22.953-1.776 24.529-11.647.863-5.41-.914-10.631-4.704-13.82-2.937-2.471-3.388-2.533-18.434-2.533H560v14" fill="undefined" fill-rule="evenodd"/></svg>